<?xml version="1.0" encoding="UTF-8"?>
<svg id="Camada_1" data-name="Camada 1" xmlns="http://www.w3.org/2000/svg" xmlns:xlink="http://www.w3.org/1999/xlink" viewBox="0 0 510.53 462.44">
  <defs>
    <style>
      .cls-1 {
        fill: url(#Gradiente_sem_nome_8-9);
      }

      .cls-2 {
        fill: url(#Gradiente_sem_nome_8-5);
      }

      .cls-3 {
        fill: url(#Gradiente_sem_nome_8-6);
      }

      .cls-4 {
        fill: url(#Gradiente_sem_nome_8);
      }

      .cls-5 {
        fill: url(#Gradiente_sem_nome_8-3);
      }

      .cls-6 {
        fill: url(#Gradiente_sem_nome_8-7);
      }

      .cls-7 {
        fill: url(#Gradiente_sem_nome_8-8);
      }

      .cls-8 {
        fill: url(#Gradiente_sem_nome_8-4);
      }

      .cls-9 {
        fill: url(#Gradiente_sem_nome_8-2);
      }
    </style>
    <linearGradient id="Gradiente_sem_nome_8" data-name="Gradiente sem nome 8" x1="481.28" y1="-210.26" x2="-180.72" y2="448.74" gradientUnits="userSpaceOnUse">
      <stop offset="0" stop-color="#fe7d53"/>
      <stop offset="1" stop-color="#9f0066"/>
    </linearGradient>
    <linearGradient id="Gradiente_sem_nome_8-2" data-name="Gradiente sem nome 8" x1="515.98" y1="-175.39" x2="-146.02" y2="483.61" xlink:href="#Gradiente_sem_nome_8"/>
    <linearGradient id="Gradiente_sem_nome_8-3" data-name="Gradiente sem nome 8" x1="628.53" y1="-62.34" x2="-33.47" y2="596.66" xlink:href="#Gradiente_sem_nome_8"/>
    <linearGradient id="Gradiente_sem_nome_8-4" data-name="Gradiente sem nome 8" x1="547.83" y1="-143.4" x2="-114.17" y2="515.6" xlink:href="#Gradiente_sem_nome_8"/>
    <linearGradient id="Gradiente_sem_nome_8-5" data-name="Gradiente sem nome 8" x1="606.14" y1="-84.83" x2="-55.86" y2="574.17" xlink:href="#Gradiente_sem_nome_8"/>
    <linearGradient id="Gradiente_sem_nome_8-6" data-name="Gradiente sem nome 8" x1="609.28" y1="-81.68" x2="-52.72" y2="577.32" xlink:href="#Gradiente_sem_nome_8"/>
    <linearGradient id="Gradiente_sem_nome_8-7" data-name="Gradiente sem nome 8" x1="693.16" y1="2.58" x2="31.16" y2="661.58" xlink:href="#Gradiente_sem_nome_8"/>
    <linearGradient id="Gradiente_sem_nome_8-8" data-name="Gradiente sem nome 8" x1="547.35" y1="-143.88" x2="-114.65" y2="515.12" xlink:href="#Gradiente_sem_nome_8"/>
    <linearGradient id="Gradiente_sem_nome_8-9" data-name="Gradiente sem nome 8" x1="547.83" y1="-143.4" x2="-114.17" y2="515.6" xlink:href="#Gradiente_sem_nome_8"/>
  </defs>
  <path class="cls-4" d="m266.47,155.46l-115.54-115.53s-.03-.04-.04-.05c-.07-.07-.13-.16-.2-.23-.43-.49-.76-1.02-.98-1.6l-9.4-24.42-24.94-11.56-11.69,11.69,11.57,24.93,24.42,9.4s0,0,.01,0c.31.12.61.27.89.45.02.02.05.03.08.04.19.12.36.27.54.43.11.09.22.16.32.25.02.02.04.03.05.04l115.53,115.53,9.37-9.37Z"/>
  <path class="cls-9" d="m245.55,102.25h-16.93l8.05,8.05,8.89-8.05Z"/>
  <path class="cls-5" d="m397.1,246.29l-103.05-103.06-49.16,49.17,103.05,103.06c6.56,6.56,15.29,10.18,24.57,10.18s18.02-3.62,24.59-10.19c6.57-6.56,10.18-15.29,10.18-24.59,0-9.27-3.62-18-10.18-24.57h0Zm-27.48,38.74c-1.06,1.05-2.45,1.58-3.85,1.58s-2.78-.53-3.83-1.58l-90.16-90.16c-2.12-2.12-2.12-5.55,0-7.68,2.13-2.12,5.55-2.12,7.68,0l90.16,90.16c2.12,2.11,2.12,5.54,0,7.67h0Zm17.04-17.05c-1.05,1.06-2.45,1.59-3.84,1.59s-2.78-.53-3.85-1.59l-90.16-90.16c-2.12-2.11-2.12-5.56,0-7.68,2.13-2.12,5.56-2.12,7.68,0l90.16,90.16c2.14,2.12,2.14,5.57,0,7.68h0Z"/>
  <path class="cls-8" d="m233.37,188.57l16.06-16.06-31.02-31.04-103.51,93.68c-14.43,14.49-14.41,38.02.05,52.5,14.48,14.46,38.03,14.48,52.5.04l74.75-82.6-8.84-8.86c-2.12-2.11-2.12-5.55,0-7.66h0Zm-92.14,103.3c-16.83,0-30.52-13.68-30.52-30.52s13.68-30.5,30.52-30.5,30.5,13.68,30.5,30.5c0,16.84-13.68,30.52-30.5,30.52Z"/>
  <path class="cls-2" d="m49.09,131.95v265.04h412.33V131.95h-138.36l-11.86,13.09,93.57,93.58c8.62,8.61,13.37,20.07,13.37,32.26-.01,12.19-4.75,23.64-13.37,32.25-8.62,8.62-20.07,13.37-32.26,13.37s-23.64-4.74-32.25-13.36l-90.37-90.37-74.52,82.34s-.07.06-.11.1c-.04.04-.05.07-.09.11-9.36,9.36-21.66,14.04-33.95,14.04s-24.59-4.68-33.95-14.04c-18.73-18.73-18.73-49.19,0-67.91.03-.04.07-.05.1-.09s.05-.07.09-.1l103.25-93.44-1.85-1.84H49.09Z"/>
  <path class="cls-3" d="m487.14,134.51c0-17.79-14.48-32.26-32.27-32.26h-72.04c-.29,0-.58-.04-.85-.09-8.75,4.76-18.56,7.27-28.6,7.27-3.09,0-6.19-.24-9.29-.72l-11.2,12.37h133.97c3,0,5.43,2.43,5.43,5.43v275.89c0,3-2.43,5.44-5.43,5.44H43.67c-3,0-5.43-2.44-5.43-5.44V126.51c0-3,2.44-5.43,5.43-5.43h154.34l-18.84-18.84H55.65c-17.8,0-32.27,14.47-32.27,32.26v285.85h463.77V134.51s-.01,0-.01,0Z"/>
  <path class="cls-6" d="m0,431.22v14.55l34.38,16.68h441.75l34.4-16.68v-14.55H0Zm318.39,21.04h-126.26c-3,0-5.43-2.42-5.43-5.43s2.44-5.43,5.43-5.43h126.26c3,0,5.43,2.43,5.43,5.43,0,3.01-2.43,5.43-5.43,5.43Z"/>
  <path class="cls-7" d="m274.14,147.79l16.06-16.06c1.02-1.02,2.4-1.59,3.84-1.59s2.82.57,3.84,1.59l5.63,5.63,34.55-38.16s.07-.05.09-.09c.16-.17.34-.32.52-.47.11-.09.2-.17.31-.25.16-.12.35-.22.54-.31.12-.07.25-.14.39-.21.18-.08.36-.13.55-.2.14-.04.29-.1.43-.13.19-.04.38-.06.57-.09.16-.02.32-.04.49-.04.17,0,.35.01.52.02.19.01.38.03.57.06.05.01.12,0,.16.02,16.35,3.41,33.16-1.59,44.95-13.38,12-12,16.83-29.04,13.34-45.22l-37.52,37.52c-1.02,1.02-2.4,1.59-3.84,1.59s-2.83-.57-3.85-1.59l-30.14-30.14c-2.12-2.12-2.12-5.55,0-7.68L363.66,1.11c-16.19-3.49-33.23,1.35-45.22,13.34-11.79,11.79-16.8,28.6-13.38,44.94.02.05.02.11.02.16.04.2.05.41.07.62.01.15.02.3.02.45,0,.2-.03.39-.05.59-.02.15-.04.3-.07.45-.04.2-.12.39-.18.58-.04.13-.09.27-.13.4-.09.2-.18.38-.3.56-.07.12-.13.25-.21.36-.11.17-.24.32-.38.47-.11.12-.2.24-.32.35-.05.04-.09.1-.13.14l-59.05,53.44,29.78,29.82Z"/>
  <path class="cls-1" d="m141.23,241.72c-10.84,0-19.65,8.81-19.65,19.65s8.81,19.64,19.65,19.64,19.65-8.81,19.65-19.64-8.82-19.65-19.65-19.65Z"/>
</svg>