<?xml version="1.0" encoding="UTF-8"?>
<svg id="Camada_1" data-name="Camada 1" xmlns="http://www.w3.org/2000/svg" xmlns:xlink="http://www.w3.org/1999/xlink" viewBox="0 0 547.68 541.18">
  <defs>
    <style>
      .cls-1 {
        fill: url(#Gradiente_sem_nome_12);
      }
    </style>
    <linearGradient id="Gradiente_sem_nome_12" data-name="Gradiente sem nome 12" x1="587.85" y1="-65.77" x2="-73.15" y2="583.23" gradientUnits="userSpaceOnUse">
      <stop offset="0" stop-color="#fe7d53"/>
      <stop offset="1" stop-color="#9f0066"/>
    </linearGradient>
  </defs>
  <path class="cls-1" d="m478.29,181.12c9.93,3.75,20.47,5.64,31.08,5.6h25.09c3.5,0,6.87,1.39,9.34,3.87,2.48,2.48,3.87,5.84,3.87,9.34v186.48c-.06,7.23-5.93,13.07-13.16,13.11h-33.15c-4.75.01-9.36,1.65-13.05,4.65l-7.56,6.16c-1.94,1.54-4.76,1.24-6.33-.67l-177.69-215.71c-2.16-2.64-5.2-4.44-8.55-5.07-3.36-.64-6.83-.07-9.82,1.6l-81.42,45.64c-16.37,9.15-36.07,10.12-53.26,2.63-5.65-2.45-9.67-7.6-10.68-13.68-1.01-6.07,1.14-12.25,5.7-16.39l95.65-72.8c26.18-19.9,60.78-24.87,91.5-13.16l152.43,58.4ZM13.21,399.52h28.67l19.99-24.47c7.98-9.66,19.23-16.05,31.62-17.97s25.04.77,35.57,7.56c10.53,6.79,18.21,17.21,21.57,29.28,17.2,4.75,30.67,18.12,35.56,35.28,12.57,3.65,23.25,11.99,29.85,23.3,10.83,1.71,20.84,6.83,28.56,14.61,7.98,8.32,13.04,19.02,14.39,30.47,1.36,11.45-1.06,23.03-6.89,32.98l-2.97,5.21c6.39,4.54,14.33,6.33,22.05,4.96,7.71-1.37,14.56-5.78,19-12.24,4.44-6.46,6.09-14.43,4.6-22.12-.14-.29-.04-.64.24-.81.28-.16.64-.08.82.19l2.18,2.13c4.93,4.93,11.4,7.99,18.33,8.69,6.93.7,13.89-1.03,19.69-4.88,4.65-3.25,8.26-7.77,10.39-13.04,2.12-5.26,2.68-11.02,1.59-16.59-.14-.29-.04-.64.24-.8.28-.16.64-.08.82.19l2.18,2.13c4.92,4.91,11.39,7.97,18.3,8.66,6.92.7,13.86-1.02,19.66-4.86,4.66-3.24,8.29-7.77,10.42-13.02,2.14-5.26,2.7-11.03,1.62-16.6-.14-.29-.04-.64.24-.8.28-.16.64-.08.82.19l2.46,2.35c4.66,4.63,10.73,7.59,17.24,8.43,6.52.84,13.14-.49,18.82-3.79,7.53-4.5,12.65-12.13,13.96-20.8,1.31-8.67-1.32-17.48-7.18-24l-17.92-21.62-144.7-176.34c-1.47-1.8-4.03-2.27-6.05-1.12l-69.21,38.75c-22.27,12.48-48.89,14.53-72.8,5.6-13.16-4.61-23.57-14.89-28.34-28-3.78-13.37-2.09-27.69,4.7-39.82,1.16-2.03,1.17-4.53.02-6.57-1.15-2.04-3.28-3.33-5.62-3.39H13.22c-7.3,0-13.22,5.91-13.22,13.21v186.48c.12,7.21,6,12.99,13.21,12.99h0Zm134.4,109.59l1.68,1.29h0c3.77,2.95,8.3,4.75,13.07,5.2,4.77.45,9.56-.49,13.81-2.69.41-.25.93-.28,1.36-.06.43.21.72.64.77,1.12,1,6.18,4.3,11.76,9.24,15.62l1.06.84h0c5.76,4.51,13.2,6.29,20.38,4.89,7.18-1.41,13.39-5.87,17.03-12.22l3.64-6.38c3.01-5.05,4.22-10.98,3.43-16.81-.79-5.83-3.54-11.21-7.79-15.28-3.63-3.29-8.14-5.44-12.97-6.2-4.84-.76-9.79-.08-14.25,1.94-.24.12-.53.11-.75-.04s-.34-.42-.31-.68c.43-8.38-3.39-16.4-10.17-21.34-6.78-4.94-15.59-6.12-23.43-3.13-3.7.67-2.91-2.57-2.91-2.57h0c2.62-6.37,2.48-13.54-.4-19.79-2.88-6.25-8.24-11.02-14.78-13.17-6.54-2.14-13.68-1.46-19.7,1.88-2.74.39-2.41-2.18-2.41-2.18h0c3.18-5.57,4.05-12.16,2.44-18.36-1.61-6.2-5.58-11.53-11.06-14.85-5.33-2.98-11.55-3.96-17.54-2.76-5.98,1.2-11.35,4.5-15.11,9.31l-19.43,23.86c-4.18,5.12-6.12,11.71-5.4,18.28.73,6.57,4.07,12.57,9.26,16.66l2.97,2.3h0c3.86,3.04,8.55,4.84,13.45,5.2,4.9.35,9.8-.78,14.05-3.24.41-.27.95-.27,1.34.02.4.29.58.79.45,1.27-.88,4.46-.51,9.09,1.07,13.36,1.58,4.27,4.31,8.02,7.89,10.83l2.41,1.9h0c3.72,2.93,8.21,4.73,12.92,5.19s9.46-.45,13.68-2.61c.42-.21.92-.17,1.3.1.38.27.59.72.55,1.19-.99,8.49,2.46,16.89,9.12,22.23l.05-.11ZM46.98,69.11l62.33,44.8c4.14,2.97,9.59,3.35,14.1.98,4.51-2.37,7.29-7.09,7.18-12.18v-21.39h286.49v21.79h0c-.11,5.09,2.67,9.8,7.18,12.18,4.51,2.37,9.96,1.99,14.1-.98l62.33-44.8c3.52-2.53,5.61-6.59,5.61-10.92s-2.09-8.39-5.61-10.92L438.36,2.86c-4.14-2.97-9.59-3.35-14.1-.98-4.51,2.37-7.29,7.09-7.18,12.18v15.85H130.59V13.73c.11-5.09-2.67-9.81-7.18-12.18-4.51-2.37-9.96-1.99-14.1.98l-62.33,44.8c-3.52,2.52-5.61,6.59-5.61,10.92s2.09,8.39,5.61,10.92v-.06Z"/>
</svg>