<?xml version="1.0" encoding="UTF-8"?>
<svg id="Camada_1" data-name="Camada 1" xmlns="http://www.w3.org/2000/svg" xmlns:xlink="http://www.w3.org/1999/xlink" viewBox="0 0 459.1 470.39">
  <defs>
    <style>
      .cls-1 {
        fill: url(#Gradiente_sem_nome_16-4);
      }

      .cls-2 {
        fill: url(#Gradiente_sem_nome_16-3);
      }

      .cls-3 {
        fill: url(#Gradiente_sem_nome_16-6);
      }

      .cls-4 {
        fill: url(#Gradiente_sem_nome_16-2);
      }

      .cls-5 {
        fill: url(#Gradiente_sem_nome_16);
      }

      .cls-6 {
        fill: url(#Gradiente_sem_nome_16-7);
      }

      .cls-7 {
        fill: url(#Gradiente_sem_nome_16-5);
      }
    </style>
    <linearGradient id="Gradiente_sem_nome_16" data-name="Gradiente sem nome 16" x1="594.71" y1="-54.93" x2="-47.29" y2="592.07" gradientUnits="userSpaceOnUse">
      <stop offset="0" stop-color="#fe7d53"/>
      <stop offset="1" stop-color="#9f0066"/>
    </linearGradient>
    <linearGradient id="Gradiente_sem_nome_16-2" data-name="Gradiente sem nome 16" x1="492.72" y1="-156.13" x2="-149.28" y2="490.87" xlink:href="#Gradiente_sem_nome_16"/>
    <linearGradient id="Gradiente_sem_nome_16-3" data-name="Gradiente sem nome 16" x1="562.63" y1="-86.76" x2="-79.37" y2="560.24" xlink:href="#Gradiente_sem_nome_16"/>
    <linearGradient id="Gradiente_sem_nome_16-4" data-name="Gradiente sem nome 16" x1="561.89" y1="-87.49" x2="-80.11" y2="559.51" xlink:href="#Gradiente_sem_nome_16"/>
    <linearGradient id="Gradiente_sem_nome_16-5" data-name="Gradiente sem nome 16" x1="559.26" y1="-90.11" x2="-82.74" y2="556.89" xlink:href="#Gradiente_sem_nome_16"/>
    <linearGradient id="Gradiente_sem_nome_16-6" data-name="Gradiente sem nome 16" x1="474.83" y1="-173.88" x2="-167.17" y2="473.12" xlink:href="#Gradiente_sem_nome_16"/>
    <linearGradient id="Gradiente_sem_nome_16-7" data-name="Gradiente sem nome 16" x1="710.33" y1="59.8" x2="68.33" y2="706.8" xlink:href="#Gradiente_sem_nome_16"/>
  </defs>
  <path class="cls-5" d="m380.7,302.4c3.82,0,7.55.32,11.23.79-20.18-22.52-40.5-24.25-46.63-25.68-18.89-4.42-41.76-2.54-53.96-6.34-2.14,17.86-36.52,32.07-78.64,32.07s-76.5-14.21-78.64-32.07c-12.2,3.82-35.07,1.93-53.96,6.34-9.59,2.24-54.16,5.1-78.28,88.08-3.27,11.28-2.12,23.52,3.2,33.56,19.76,37.36,123.67,48.87,207.67,48.86,30.45,0,63.53-1.52,94.26-5.23-9.97-14.45-15.86-31.93-15.86-50.78,0-49.4,40.2-89.6,89.6-89.6h0Z"/>
  <path class="cls-4" d="m113.43,182.83c8.89,23.91,22.95,47.14,40.35,64.12,9.84,9.62,20.75,17.25,32.39,21.85,8,3.17,16.35,4.93,24.93,4.93s16.92-1.75,24.92-4.93c12.04-4.77,23.31-12.75,33.42-22.86,16.97-16.95,30.69-39.81,39.41-63.31,6.7-1.98,13.73-14.53,16.59-30.56,3.11-17.4.17-32.57-6.54-35.1.24-4.25.4-8.54.39-12.95-.16-63.07-37.13-99.73-95.45-103.64-50.83-3.41-89.14,16.78-106.57,50.37-5.87,11.3-9.22,25.43-10.5,40.77-1.96,7.99-3.11,16.3-3.11,24.89h.19c0,.07-.01.13-.01.2-.12.01-.25.02-.37.04-7.44,1.29-10.82,17.16-7.56,35.43,2.97,16.79,10.54,29.78,17.53,30.75h0Zm1.67-47.01c.72-2.14,1.69-3.81,2.93-4.7.52-.38,1.09-.63,1.7-.73h0c1.38-.25,2.82.29,4.25,1.43h0c0-.11.01-.22.02-.34.46-4.44,6.05-41.11,39.58-42.63,2.23-.1,4.59-.04,7.09.18,0,0,12.64,4.65,29.64,5.88,2.43.17,4.95.28,7.53.3,9.4.05,19.63-1.14,29.56-4.68,1.71-.04,3.39-.06,5.03-.07,1.65,0,3.26.02,4.79.08,11.53.43,19.86,5.71,28.1,9.97,1.18.61,2.35,1.2,3.54,1.75-.35-4.34-3.68-8.78-3.51-11.71,1.52.44,2.89,1.07,4.2,1.79,6.79,7.24,13.39,19.4,18.61,39.25.01.09.01.17.02.25.01-.01.02-.02.04-.04,0,.01.01.02.01.02l.07-.09c1.38-1.08,2.78-1.58,4.13-1.34.35.07.68.17,1,.31.57.27,1.07.75,1.55,1.28,1.56,1.73,2.62,4.79,3.11,8.63.08.61.2,1.16.24,1.8.16,2.3.11,4.83-.13,7.48-.01.11-.01.21-.02.32,0-.05,0-.11.01-.16,0,.05,0,.11-.01.17-.13,1.39-.34,2.81-.59,4.26-.38,2.22-.89,4.34-1.52,6.32-1.82,5.95-4.47,10.65-7.23,12.99-1.48,1.24-2.98,1.82-4.43,1.57h0c-.82-.13-1.54-.53-2.21-1.15-8.07,25.08-23.43,50.06-42.82,65.25-11.56,9.03-24.56,14.61-38.3,14.61s-26.17-5.32-37.54-14.05c-19.75-15.09-35.39-40.4-43.56-65.8-.67.62-1.4,1.02-2.21,1.15-.42.07-.84.08-1.27.01-1.28-.19-2.6-.98-3.86-2.25-3.43-3.41-6.55-10.35-8.04-18.66-.1-.55-.15-1.07-.23-1.62.09-5.82.34-11.46.74-17.04h0Z"/>
  <path class="cls-2" d="m292.2,174.21s-.01,0-.01,0c-8.06,25.08-23.43,50.07-42.82,65.25,19.4-15.18,34.76-40.16,42.83-65.24h0Z"/>
  <path class="cls-1" d="m211.08,254.07c13.74,0,26.74-5.58,38.3-14.62-11.56,9.04-24.56,14.62-38.3,14.62Z"/>
  <path class="cls-7" d="m294.41,175.36c1.45.25,2.95-.33,4.43-1.57-1.48,1.25-2.98,1.82-4.43,1.57Z"/>
  <path class="cls-3" d="m127.76,175.36c.82-.13,1.55-.54,2.21-1.15-.66.62-1.4,1.02-2.21,1.15Z"/>
  <path class="cls-6" d="m380.7,313.6c-43.24,0-78.4,35.16-78.4,78.4s35.16,78.4,78.4,78.4,78.4-35.16,78.4-78.4-35.17-78.4-78.4-78.4h0Zm36.31,83.04c-12.61,12.61-32.78,32.79-36.32,36.33-3.54-3.54-23.7-23.71-36.32-36.33-11.3-11.3-11.05-27.77-.79-37.98,10.27-10.23,26.89-10.17,37.1.1,10.22-10.27,26.84-10.32,37.1-.1,10.27,10.21,10.51,26.68-.79,37.98h0Z"/>
</svg>