<?xml version="1.0" encoding="utf-8"?>
<!-- Generator: Adobe Illustrator 27.3.1, SVG Export Plug-In . SVG Version: 6.00 Build 0)  -->
<svg version="1.1" id="Camada_1" xmlns="http://www.w3.org/2000/svg" xmlns:xlink="http://www.w3.org/1999/xlink" x="0px" y="0px"
	 viewBox="0 0 700 700" style="enable-background:new 0 0 700 700;" xml:space="preserve">
<style type="text/css">
	.st0{fill:url(#SVGID_1_);}
	.st1{fill:url(#SVGID_00000103241768212620301940000010012616687944768138_);}
	.st2{fill:url(#SVGID_00000131334641221055320200000001358113576916526783_);}
	.st3{fill:url(#SVGID_00000155848494042238119680000000066407583923852207_);}
	.st4{fill:url(#SVGID_00000024692031206441564150000002477735137288283280_);}
	.st5{fill:url(#SVGID_00000155856831336974465990000000233870376517330092_);}
	.st6{fill:url(#SVGID_00000175286784280433827860000013277921444214352556_);}
	.st7{fill:url(#SVGID_00000146469448102943969010000008911092737883653543_);}
	.st8{fill:url(#SVGID_00000009554648046284211750000005405687254531967387_);}
	.st9{fill:url(#SVGID_00000075881954427167736800000018104275566502239911_);}
	.st10{fill:url(#SVGID_00000101813862968831988560000008549726104038863252_);}
	.st11{fill:url(#SVGID_00000140713390101766425880000011854874155514818747_);}
</style>
<g id="Camada_1_00000026845455783898482400000007756541612584769152_">
	<g>
		<linearGradient id="SVGID_1_" gradientUnits="userSpaceOnUse" x1="135.8073" y1="797.548" x2="816.8073" y2="126.5481">
			<stop  offset="0" style="stop-color:#9F0066"/>
			<stop  offset="1" style="stop-color:#FE7D53"/>
		</linearGradient>
		<path class="st0" d="M421.1,565.1c-21.3,10.1-45.4,16.2-71.1,16.2c-25.2,0-49.3-5.6-70.6-15.7v16.8c0,6.7-2.2,13.4-5.6,18.5
			c23.5,9.5,49.3,15.1,76.7,15.1c27.4,0,53.2-5.6,76.7-15.1c-3.9-5-5.6-11.8-5.6-18.5v-17.4h-0.5V565.1z"/>
		
			<linearGradient id="SVGID_00000047742892018634632400000013257685772945151639_" gradientUnits="userSpaceOnUse" x1="70.6065" y1="731.3755" x2="751.6064" y2="60.3756">
			<stop  offset="0" style="stop-color:#9F0066"/>
			<stop  offset="1" style="stop-color:#FE7D53"/>
		</linearGradient>
		<path style="fill:url(#SVGID_00000047742892018634632400000013257685772945151639_);" d="M455.3,289.1
			c24.6,20.7,43.1,48.2,52.6,79.5c6.7-2.2,14.6-3.4,21.8-3.4c4.5,0,9,0.6,13.4,1.1c-12.3-48.7-43.1-90.7-84.6-117.6v1.7v23
			C459.2,279,458.1,284.6,455.3,289.1L455.3,289.1z"/>
		
			<linearGradient id="SVGID_00000057136708933246698590000002259282749692330942_" gradientUnits="userSpaceOnUse" x1="-70.5863" y1="588.0786" x2="610.4137" y2="-82.9214">
			<stop  offset="0" style="stop-color:#9F0066"/>
			<stop  offset="1" style="stop-color:#FE7D53"/>
		</linearGradient>
		<path style="fill:url(#SVGID_00000057136708933246698590000002259282749692330942_);" d="M191.5,368.6c9.5-31.4,28-58.8,52.6-79.5
			c-2.2-4.5-3.9-10.1-3.9-15.7v-23v-1.7c-41.4,26.9-71.7,68.9-84.6,117.6c4.5-0.6,9-1.1,13.4-1.1
			C177.5,365.2,184.8,366.3,191.5,368.6L191.5,368.6z"/>
		
			<linearGradient id="SVGID_00000090272280284366106780000013940514084381938851_" gradientUnits="userSpaceOnUse" x1="-90.7187" y1="567.6461" x2="590.2813" y2="-103.3539">
			<stop  offset="0" style="stop-color:#9F0066"/>
			<stop  offset="1" style="stop-color:#FE7D53"/>
		</linearGradient>
		<path style="fill:url(#SVGID_00000090272280284366106780000013940514084381938851_);" d="M399.3,133.4c0,27.2-22.1,49.3-49.3,49.3
			s-49.3-22.1-49.3-49.3s22.1-49.3,49.3-49.3S399.3,106.2,399.3,133.4"/>
		
			<linearGradient id="SVGID_00000022557641696567666760000001741527756954995841_" gradientUnits="userSpaceOnUse" x1="-32.1074" y1="627.1309" x2="648.8926" y2="-43.8691">
			<stop  offset="0" style="stop-color:#9F0066"/>
			<stop  offset="1" style="stop-color:#FE7D53"/>
		</linearGradient>
		<path style="fill:url(#SVGID_00000022557641696567666760000001741527756954995841_);" d="M273.3,278.4h152.9c2.8,0,5-2.2,5-5v-23
			c0-24.6-16.2-45.9-38.1-53.2c-12.3,8.4-27.4,13.4-43.7,13.4c-16.2,0-31.4-5-43.7-13.4c-22.4,7.8-38.1,28.6-38.1,53.2v23
			C268.2,276.2,270.5,278.4,273.3,278.4L273.3,278.4z"/>
		
			<linearGradient id="SVGID_00000036930237722246080420000007967816063593918609_" gradientUnits="userSpaceOnUse" x1="33.7362" y1="693.9558" x2="714.7362" y2="22.9558">
			<stop  offset="0" style="stop-color:#9F0066"/>
			<stop  offset="1" style="stop-color:#FE7D53"/>
		</linearGradient>
		<path style="fill:url(#SVGID_00000036930237722246080420000007967816063593918609_);" d="M213.4,505.8c-12.3,8.4-27.4,14-43.7,14
			c-16.2,0-31.4-5-43.7-14c-21.8,7.8-38.1,29.1-38.1,53.8v23c0,2.8,2.2,5,5,5h152.9c2.8,0,5-2.2,5-5v-23
			C251.4,534.2,235.8,513.6,213.4,505.8L213.4,505.8z"/>
		
			<linearGradient id="SVGID_00000132801236600748793190000013253760817286239423_" gradientUnits="userSpaceOnUse" x1="-25.0021" y1="634.3421" x2="655.9979" y2="-36.6579">
			<stop  offset="0" style="stop-color:#9F0066"/>
			<stop  offset="1" style="stop-color:#FE7D53"/>
		</linearGradient>
		<path style="fill:url(#SVGID_00000132801236600748793190000013253760817286239423_);" d="M219,442.5c0,27.2-22.1,49.3-49.3,49.3
			s-49.3-22.1-49.3-49.3c0-27.2,22.1-49.3,49.3-49.3S219,415.3,219,442.5"/>
		
			<linearGradient id="SVGID_00000016048487640584031190000010777146401273031566_" gradientUnits="userSpaceOnUse" x1="211.5599" y1="874.4296" x2="892.5599" y2="203.4296">
			<stop  offset="0" style="stop-color:#9F0066"/>
			<stop  offset="1" style="stop-color:#FE7D53"/>
		</linearGradient>
		<path style="fill:url(#SVGID_00000016048487640584031190000010777146401273031566_);" d="M574,505.8c-12.3,8.4-27.4,14-43.7,14
			c-16.2,0-31.4-5-43.7-14c-21.8,7.8-37.5,29.1-37.5,53.8v23c0,2.8,2.2,5,5,5H607c2.8,0,5-2.2,5-5v-23
			C612.1,534.2,596.4,513.6,574,505.8L574,505.8z"/>
		
			<linearGradient id="SVGID_00000026157752066866427010000010323127873962693021_" gradientUnits="userSpaceOnUse" x1="152.6309" y1="814.6224" x2="833.6309" y2="143.6224">
			<stop  offset="0" style="stop-color:#9F0066"/>
			<stop  offset="1" style="stop-color:#FE7D53"/>
		</linearGradient>
		<path style="fill:url(#SVGID_00000026157752066866427010000010323127873962693021_);" d="M579.6,442.5c0,27.2-22.1,49.3-49.3,49.3
			c-27.2,0-49.3-22.1-49.3-49.3c0-27.2,22.1-49.3,49.3-49.3C557.5,393.2,579.6,415.3,579.6,442.5"/>
		
			<linearGradient id="SVGID_00000131351610339008562940000014178914355130001079_" gradientUnits="userSpaceOnUse" x1="85.0846" y1="746.0695" x2="766.0846" y2="75.0694">
			<stop  offset="0" style="stop-color:#9F0066"/>
			<stop  offset="1" style="stop-color:#FE7D53"/>
		</linearGradient>
		<path style="fill:url(#SVGID_00000131351610339008562940000014178914355130001079_);" d="M397,473.3c4.5-4.5,2.2-11.8-3.9-12.3
			l-23.5-2.8c-1.7,0-2.8-1.1-3.4-2.8l-9.5-21.3c-2.8-5.6-10.6-5.6-13.4,0l-9.5,21.3c-0.6,1.7-2.2,2.2-3.4,2.8l-23.5,2.8
			c-6.2,0.6-8.4,8.4-3.9,12.3l17.4,15.7c1.1,1.1,1.7,2.8,1.1,4.5l-4.5,23c-1.1,6.2,5,10.6,10.6,7.8l20.2-11.8c1.1-0.6,3.4-0.6,4.5,0
			l20.2,11.8c5.6,2.8,11.8-1.7,10.6-7.8l-4.5-23c-0.6-1.7,0-3.4,1.1-4.5L397,473.3z"/>
		
			<linearGradient id="SVGID_00000060732410437338528430000003048067004659728000_" gradientUnits="userSpaceOnUse" x1="66.7093" y1="727.4203" x2="747.7094" y2="56.4203">
			<stop  offset="0" style="stop-color:#9F0066"/>
			<stop  offset="1" style="stop-color:#FE7D53"/>
		</linearGradient>
		<path style="fill:url(#SVGID_00000060732410437338528430000003048067004659728000_);" d="M445.2,388.2l17.4-15.7
			c4.5-3.9,2.2-11.8-3.9-12.3l-23.5-2.8c-1.7,0-2.8-1.1-3.4-2.8l-10.1-21.3c-2.8-5.6-10.6-5.6-13.4,0l-9.5,21.3
			c-0.6,1.7-2.2,2.2-3.4,2.8l-23.5,2.8c-6.2,0.6-8.4,8.4-3.9,12.3l17.4,15.7c1.1,1.1,1.7,2.8,1.1,4.5l-4.5,23
			c-1.1,6.2,5,10.6,10.6,7.8l20.2-11.8c1.1-0.6,3.4-0.6,4.5,0l20.2,11.8c5.6,2.8,11.8-1.7,10.6-7.8l-4.5-23
			C443.5,391,444.1,389.3,445.2,388.2L445.2,388.2z"/>
		
			<linearGradient id="SVGID_00000043433453830156884320000011985746939123011754_" gradientUnits="userSpaceOnUse" x1="2.5477" y1="662.3025" x2="683.5477" y2="-8.6975">
			<stop  offset="0" style="stop-color:#9F0066"/>
			<stop  offset="1" style="stop-color:#FE7D53"/>
		</linearGradient>
		<path style="fill:url(#SVGID_00000043433453830156884320000011985746939123011754_);" d="M287.3,411.7l20.2,11.8
			c5.6,2.8,11.8-1.7,10.6-7.8l-4.5-23c-0.6-1.7,0-3.4,1.1-4.5l17.4-15.7c4.5-3.9,2.2-11.8-3.9-12.3l-23.5-2.8
			c-1.7,0-2.8-1.1-3.4-2.8l-10.1-21.3c-2.8-5.6-10.6-5.6-13.4,0l-9.5,21.3c-0.6,1.7-2.2,2.2-3.4,2.8l-23.5,2.8
			c-6.2,0.6-8.4,8.4-3.9,12.3l17.4,15.7c1.1,1.1,1.7,2.8,1.1,4.5l-4.5,23c-1.1,6.2,5,10.6,10.6,7.8l20.7-11.8
			C283.9,411.1,285.6,411.1,287.3,411.7L287.3,411.7z"/>
	</g>
</g>
<g id="Camada_2_00000037675163195957176320000008847979647508872870_">
</g>
</svg>
