<?xml version="1.0" encoding="UTF-8"?>
<svg id="Camada_1" data-name="Camada 1" xmlns="http://www.w3.org/2000/svg" xmlns:xlink="http://www.w3.org/1999/xlink" viewBox="0 0 421.16 511.88">
  <defs>
    <style>
      .cls-1 {
        fill: url(#Gradiente_sem_nome_15-2);
      }

      .cls-2 {
        fill: url(#Gradiente_sem_nome_15-6);
      }

      .cls-3 {
        fill: url(#Gradiente_sem_nome_15);
      }

      .cls-4 {
        fill: url(#Gradiente_sem_nome_15-5);
      }

      .cls-5 {
        fill: url(#Gradiente_sem_nome_15-8);
      }

      .cls-6 {
        fill: url(#Gradiente_sem_nome_15-7);
      }

      .cls-7 {
        fill: url(#Gradiente_sem_nome_15-4);
      }

      .cls-8 {
        fill: url(#Gradiente_sem_nome_15-3);
      }
    </style>
    <linearGradient id="Gradiente_sem_nome_15" data-name="Gradiente sem nome 15" x1="568.63" y1="-28.52" x2="-52.37" y2="614.48" gradientUnits="userSpaceOnUse">
      <stop offset="0" stop-color="#fe7d53"/>
      <stop offset="1" stop-color="#9f0066"/>
    </linearGradient>
    <linearGradient id="Gradiente_sem_nome_15-2" data-name="Gradiente sem nome 15" x1="587.85" y1="-9.96" x2="-33.15" y2="633.04" xlink:href="#Gradiente_sem_nome_15"/>
    <linearGradient id="Gradiente_sem_nome_15-3" data-name="Gradiente sem nome 15" x1="500.58" y1="-94.24" x2="-120.42" y2="548.76" xlink:href="#Gradiente_sem_nome_15"/>
    <linearGradient id="Gradiente_sem_nome_15-4" data-name="Gradiente sem nome 15" x1="406.11" y1="-185.48" x2="-214.89" y2="457.52" xlink:href="#Gradiente_sem_nome_15"/>
    <linearGradient id="Gradiente_sem_nome_15-5" data-name="Gradiente sem nome 15" x1="354.58" y1="-235.24" x2="-266.42" y2="407.76" xlink:href="#Gradiente_sem_nome_15"/>
    <linearGradient id="Gradiente_sem_nome_15-6" data-name="Gradiente sem nome 15" x1="406.56" y1="-185.04" x2="-214.44" y2="457.96" xlink:href="#Gradiente_sem_nome_15"/>
    <linearGradient id="Gradiente_sem_nome_15-7" data-name="Gradiente sem nome 15" x1="605.09" y1="6.7" x2="-15.91" y2="649.7" xlink:href="#Gradiente_sem_nome_15"/>
    <linearGradient id="Gradiente_sem_nome_15-8" data-name="Gradiente sem nome 15" x1="509.83" y1="-85.3" x2="-111.17" y2="557.7" xlink:href="#Gradiente_sem_nome_15"/>
  </defs>
  <path class="cls-3" d="m186.53,511.88h48.77l9.82-40.21c1.34-5.49,5.53-9.83,10.97-11.37,11.98-3.39,23.71-8.24,34.88-14.43,4.93-2.73,10.93-2.61,15.75.3l35.51,21.52,34.5-34.46-21.48-35.34c-2.93-4.83-3.04-10.86-.29-15.79,6.17-11.02,11.05-22.72,14.51-34.79,1.55-5.41,5.89-9.57,11.36-10.91l40.32-9.85v-30.53h-107.3c-16.06,31.7-24.25,66.24-24.25,101.75,0,21.71-17.65,39.35-39.34,39.35h-78.74c-21.41,0-38.82-17.63-38.82-39.35,0-35.26-7.08-70.39-23.65-101.75H1.16v30.05l40.17,9.81c5.49,1.34,9.83,5.53,11.37,10.96,3.42,12.07,8.27,23.79,14.41,34.83,2.74,4.93,2.62,10.93-.3,15.75l-21.55,35.46,34.49,34.45,35.38-21.45c4.83-2.93,10.86-3.04,15.8-.28,11.25,6.29,22.96,11.19,34.83,14.58,5.42,1.55,9.59,5.88,10.93,11.36l9.86,40.35Z"/>
  <path class="cls-1" d="m161.06,363.55c1.45,11.36,1.87,22.77,1.87,34.21,0,4.5,3.27,8,7.44,8h78.74c4.31,0,7.96-3.64,7.96-8,0-11.46.62-22.84,2.02-34.21h-98.02Z"/>
  <path class="cls-8" d="m210.18,75.25c-63.29,0-114.79,49.78-114.79,110.98,0,23.04,7.38,45.25,21.34,64.28,17.78,24.23,30.79,52.73,38.39,81.68h110.11c7.77-28.94,20.98-57.24,39.3-82.83,13.13-18.34,20.07-40.17,20.07-63.15,0-61.19-51.32-110.96-114.41-110.96h0Zm-3.02,175.45c-5.54,6.02-15.1,6.71-21.45,1.56l-46.12-37.43,19.78-24.34,34.66,28.13,65.57-71.31,23.11,21.21-75.55,82.17Z"/>
  <path class="cls-7" d="m195.24,0h29.52v35.15h-29.52V0Z"/>
  <path class="cls-4" d="m35.72,68.98l20.85-20.87,25.15,25.12-20.85,20.87-25.15-25.12Z"/>
  <path class="cls-2" d="m0,202.96h35.19v29.49H0v-29.49Z"/>
  <path class="cls-6" d="m384.81,201.83h35.19v29.49h-35.19v-29.49Z"/>
  <path class="cls-5" d="m336.45,72.55l25.13-25.14,20.87,20.85-25.13,25.14-20.87-20.85Z"/>
</svg>