<?xml version="1.0" encoding="utf-8"?>
<!-- Generator: Adobe Illustrator 27.3.1, SVG Export Plug-In . SVG Version: 6.00 Build 0)  -->
<svg version="1.1" id="Camada_1" xmlns="http://www.w3.org/2000/svg" xmlns:xlink="http://www.w3.org/1999/xlink" x="0px" y="0px"
	 viewBox="0 0 700 700" style="enable-background:new 0 0 700 700;" xml:space="preserve">
<style type="text/css">
	.st0{fill:url(#SVGID_1_);}
</style>
<linearGradient id="SVGID_1_" gradientUnits="userSpaceOnUse" x1="661.2516" y1="25.0362" x2="30.2517" y2="683.0362">
	<stop  offset="0" style="stop-color:#FE7D53"/>
	<stop  offset="1" style="stop-color:#9F0066"/>
</linearGradient>
<path class="st0" d="M220.2,272.5h66.4c1.3,0,2.4,1.1,2.4,2.4s-1.1,2.4-2.4,2.4h-66.4c-1.3,0-2.4-1.1-2.4-2.4
	C217.8,273.6,218.9,272.5,220.2,272.5z M223.8,254.7L223.8,254.7c0,1.3,1.1,2.3,2.4,2.4h54.5c1.3,0,2.4-1.1,2.4-2.4
	s-1.1-2.4-2.4-2.4h-54.5C224.8,252.3,223.7,253.3,223.8,254.7L223.8,254.7z M271.5,236.8c1.3,0,2.4-1.1,2.4-2.4
	c0-1.3-1.1-2.4-2.4-2.4h-36.3c-1.3,0-2.4,1.1-2.4,2.4c0,1.3,1.1,2.4,2.4,2.4H271.5z M221,193.6c4.9,7.9,10.2,15.6,15.8,23h34.7
	c0.4,0,0.8,0,1.2,0.1c19.8-35.7,20.2-56.4,15.3-61.8v0c-2.6-2-6.1-2.5-9.2-1.4c0.6,1.4,1.1,2.8,1.5,4.2c1.2,4.1-1.2,8.4-5.3,9.6
	c-4.1,1.2-8.4-1.2-9.6-5.3c-1.5-5.3-5.6-9.6-10.9-11.3c-5.3-1.8-11.1-0.8-15.5,2.5c-4.4,3.3-7,8.6-6.8,14.1c0.1,4.3-3.2,7.8-7.5,8
	h-0.3c-4.2,0-7.6-3.3-7.7-7.5v-2c-1.5,0.5-2.8,1.5-3.7,2.8c-1.3,2.6-1.8,5.6-1.4,8.4c0.4,2.9,1.6,5.6,3.4,7.9
	C217.2,187.6,219,190.5,221,193.6L221,193.6z M204.6,411.6c8.1,0.3,14.6,0.4,19.9,0.2c-1.6-3.6-2.5-7.5-2.5-11.4
	c0.1-4.2,3.5-7.5,7.7-7.5c4.2,0,7.6,3.3,7.7,7.5c0,3.6,1.6,7,4.3,9.4c4.2-1.1,8.4-2.5,12.4-4.3c4.1-1.7,8.8-3.5,15.1-5.6l0,0
	c-0.3-6.7-5.8-12.1-12.5-12.1H250c-9.5,0-18.3-4.8-23.5-12.8c-5.2-8-5.9-18-2.1-26.6c3.9-8.7,11.8-14.8,21.2-16.3V323
	c-0.1-2.1,0.7-4.1,2.2-5.6c1.5-1.5,3.5-2.3,5.6-2.3s4.1,0.8,5.5,2.3c1.5,1.5,2.2,3.5,2.2,5.6v9.2c6.6,1,12.6,4.4,16.9,9.5
	c4.3,5.1,6.7,11.5,6.7,18.2c0.1,2.1-0.7,4.1-2.2,5.6c-1.5,1.5-3.5,2.3-5.5,2.3c-2.1,0-4.1-0.8-5.5-2.3c-1.5-1.5-2.2-3.5-2.2-5.6
	c0-6.9-5.6-12.5-12.5-12.5H250c-6.9,0-12.5,5.6-12.5,12.5c0,6.9,5.6,12.5,12.5,12.5h6.7c6.6,0,13,2.4,18.1,6.7
	c5.1,4.3,8.4,10.2,9.5,16.8c18.6-4.1,31.1,5.4,34.7,16.2c3.7,10.8-0.4,25.9-18.1,33.9l-64.8,29.5c21.9-1.7,58.2-11.2,67.7-16.5
	c24.1-13.6,36.9-21.3,48.6-28.9l0,0c0.9-13.7-0.7-27.4-4.8-40.5c-11.4-39.2-33.5-63.7-54.9-87.4c-2.7-3-5.6-6.2-8.3-9.3h-62.3
	c-2.8,3.1-5.6,6.2-8.3,9.3c-21.4,23.7-43.5,48.1-54.9,87.4v0c-3,10-4.7,20.5-5.1,30.9C169.9,413.4,187.2,410.4,204.6,411.6
	L204.6,411.6z M95.6,453.2c-0.7-1.8-2.8-2.7-4.6-2L78,456.4c-1.8,0.7-2.7,2.8-2,4.6l34.6,87c0.7,1.8,2.8,2.7,4.6,2l13-5.2
	c0.9-0.3,1.5-1,1.9-1.9c0.4-0.9,0.4-1.8,0.1-2.7L95.6,453.2z M400.3,416.3c-8.5,5.7-15.3,10.3-21.3,14.4v0
	c-21.7,15.1-44.2,29-67.5,41.6c-13.6,7.7-58.9,18.8-81.5,18.8h-1.4v0c-6.6-0.1-12.2-4.9-13.4-11.4c-1.2-6.4,2.1-12.8,8.1-15.5
	l71.4-32.4c7.9-3.6,11.7-9.4,9.9-14.8c-1.6-4.6-7.5-8.3-17.2-6h0c-9.4,2.2-18.5,5.1-27.4,8.8c-12.9,5.2-21.4,8.6-56,7.2h0
	c-25.6-2.2-50.9,6.9-69.1,24.9c-5.6,4.7-11.9,8.4-18.6,11.1l21,52.8c9.2-2.3,18.7-3.2,28.2-2.8c7.6,0.8,15,2.5,22.1,5.3
	c23.8,7.9,56.4,18.6,126.6-14c7.7-5.6,23.5-17.9,40.1-30.9c22.2-17.4,47.4-37.1,59.9-45.8c2-1,3.5-2.9,4.1-5
	c0.6-2.2,0.3-4.5-0.8-6.5C414.5,411.6,407.8,411.7,400.3,416.3L400.3,416.3z M419.3,314c-4.3,0-7.7,3.5-7.7,7.7v41.8
	c0,4.3,3.5,7.7,7.7,7.7h27.7c2.1,0,4-0.8,5.5-2.3c1.5-1.5,2.3-3.4,2.3-5.5v-41.8c0-2.1-0.8-4-2.3-5.5c-1.5-1.5-3.4-2.3-5.5-2.3
	L419.3,314z M468.2,280c-2.1,0-4,0.8-5.5,2.3c-1.4,1.5-2.3,3.4-2.3,5.5v75.9c0,4.3,3.5,7.7,7.7,7.7h27.7c2.1,0,4-0.8,5.5-2.3
	c1.5-1.4,2.3-3.4,2.3-5.5v-75.8c0-2.1-0.8-4-2.3-5.5c-1.5-1.4-3.4-2.3-5.5-2.3L468.2,280z M517.1,254.9c-4.3,0-7.7,3.5-7.7,7.7
	v100.9c0,4.3,3.5,7.7,7.7,7.7h27.7c4.3,0,7.7-3.5,7.7-7.7V262.7c0-4.3-3.5-7.7-7.7-7.7L517.1,254.9z M566.1,224L566.1,224
	c-2.1,0-4,0.8-5.5,2.3c-1.4,1.4-2.3,3.4-2.3,5.5v131.8c0,2.1,0.8,4,2.3,5.5c1.4,1.5,3.4,2.3,5.5,2.3h27.7c2.1,0,4-0.8,5.5-2.3
	c1.5-1.4,2.3-3.4,2.3-5.5V231.8c0-2.1-0.8-4-2.3-5.5c-1.4-1.4-3.4-2.3-5.5-2.3L566.1,224z M463.9,232l-22.5,31.2h-21.2
	c-4.2,0.1-7.5,3.5-7.5,7.7s3.3,7.6,7.5,7.7h25.1c2.5,0,4.8-1.2,6.3-3.2l22.5-31.2h48.6c1.8,0,3.5-0.6,4.9-1.8l49.1-40.4v0
	c0,3.6,2.6,6.7,6.1,7.5c3.5,0.8,7.1-1,8.6-4.3l12.8-27c1.3-2.7,0.9-5.9-1-8.2c-1.9-2.3-4.9-3.4-7.8-2.7l-30.7,7.1h0
	c-4,0.9-6.5,4.8-5.9,8.8c0.7,4,4.3,6.8,8.4,6.4L520,228.7h-49.8C467.6,228.7,465.3,229.9,463.9,232L463.9,232z M616.3,376.4H396.7
	c-2.1-0.1-4.1,0.7-5.6,2.2c-1.5,1.5-2.3,3.5-2.3,5.6c0,2.1,0.8,4.1,2.3,5.5c1.5,1.5,3.5,2.2,5.6,2.2h219.6c2.1,0.1,4.1-0.7,5.6-2.2
	c1.5-1.5,2.3-3.5,2.3-5.5c0-2.1-0.8-4.1-2.3-5.6C620.4,377.2,618.3,376.4,616.3,376.4z M326.8,286.3c1.7,1.2,3.8,1.6,5.8,1.2
	c2-0.4,3.8-1.6,5-3.2l50.9-74.8h70.4c4.2-0.1,7.5-3.5,7.5-7.7s-3.3-7.6-7.5-7.7h-74.5c-2.6,0-5,1.3-6.4,3.4l-53.2,78.1
	c-1.2,1.7-1.6,3.8-1.2,5.8C324,283.4,325.1,285.2,326.8,286.3L326.8,286.3z M407.8,181.5h51.1c4.2-0.1,7.5-3.5,7.5-7.7
	c0-4.2-3.3-7.6-7.5-7.7h-51.1c-4.2,0.1-7.5,3.5-7.5,7.7C400.3,177.9,403.6,181.4,407.8,181.5z M390.1,232.8l-44.1,64.8
	c-2.4,3.5-1.5,8.4,2,10.8c3.5,2.4,8.4,1.5,10.8-2l44.1-64.8h0c2.4-3.5,1.5-8.3-2-10.8S392.5,229.2,390.1,232.8L390.1,232.8z"/>
</svg>
