<?xml version="1.0" encoding="utf-8"?>
<!-- Generator: Adobe Illustrator 27.3.1, SVG Export Plug-In . SVG Version: 6.00 Build 0)  -->
<svg version="1.1" id="Camada_1" xmlns="http://www.w3.org/2000/svg" xmlns:xlink="http://www.w3.org/1999/xlink" x="0px" y="0px"
	 viewBox="0 0 700 700" style="enable-background:new 0 0 700 700;" xml:space="preserve">
<style type="text/css">
	.st0{fill:url(#SVGID_1_);}
</style>
<linearGradient id="SVGID_1_" gradientUnits="userSpaceOnUse" x1="24.449" y1="666.5958" x2="663.449" y2="20.5958">
	<stop  offset="0" style="stop-color:#9F0066"/>
	<stop  offset="1" style="stop-color:#FE7D53"/>
</linearGradient>
<path class="st0" d="M135.5,296.5c-4.2,12.4-19.9,16.2-29.2,6.9c-11-11-3.2-30.1,12.5-30.1c7.7,0,14.3,4.9,16.7,12h39.3
	c1,0,1.9,0.2,2.7,0.7l30.5,13.1h79.4c-0.8,3.7-1.3,7.4-1.5,11.3H207c-0.8,0-1.5-0.1-2.2-0.4l-31-13.3h-38.4L135.5,296.5z
	 M364.3,455.4v46.4h42.3v-46.4H364.3z M417.5,505.2v2.1c0,3-2.4,5.5-5.5,5.5h-53.3c-3.1,0-5.5-2.4-5.5-5.5v-2.1h-93.6
	c-0.9,0-1.9,1.9-1.9,3.4V536H315l20.9-10.7c0.9-0.5,1.9-0.9,3-0.9H432c0.9,0,1.6,0.2,2.5,0.7l21.3,10.9h57.1v-27.5
	c0-1.6-1-3.4-1.9-3.4L417.5,505.2z M198.5,186.8c-7.2,0-7.2-10.9,0-10.9h37.4c7.2,0,7.2,10.9,0,10.9H198.5z M382.3,186.8
	c-7.2,0-7.2-10.9,0-10.9h23.8c7.2,0,7.2,10.9,0,10.9H382.3z M436.6,186.8c-7.2,0-7.2-10.9,0-10.9h23.8c7.2,0,7.2,10.9,0,10.9H436.6z
	 M490.8,186.8c-7.2,0-7.2-10.9,0-10.9h23.8c7.2,0,7.2,10.9,0,10.9H490.8z M545,186.8c-7.2,0-7.2-10.9,0-10.9h23.8
	c7.2,0,7.2,10.9,0,10.9H545z M354.2,370.3c5,16.7,15.9,39,31.2,39c15.2,0,26.1-22.3,31.2-39C396.3,366.3,374.6,366.3,354.2,370.3z
	 M411.3,254.5c-15-32.9-36.6-32.9-51.7,0c-2,4.4-3.8,9.2-5.4,14.3c20.2,4,42.1,4,62.3,0C415,263.6,413.3,258.8,411.3,254.5
	L411.3,254.5z M343.6,266.3c3.5-11.8,8.6-23.6,15.9-32.7c-15.1,4.6-28.5,13-39.2,24.2C327.6,261.2,335.4,264,343.6,266.3
	L343.6,266.3z M359.5,405.6c-7.2-9.1-12.4-20.9-15.9-32.7c-8.2,2.2-16,5.1-23.3,8.6C330.9,392.5,344.4,401,359.5,405.6L359.5,405.6z
	 M427.3,372.7c-3.5,11.8-8.6,23.6-15.9,32.7c15.1-4.6,28.5-13,39.2-24.2C443.2,378,435.5,375,427.3,372.7L427.3,372.7z M411.4,233.5
	c7.2,9.1,12.4,20.9,15.9,32.7c8.2-2.2,16.1-5.1,23.3-8.6C439.9,246.5,426.5,238.1,411.4,233.5L411.4,233.5z M336.5,325.1h-40.7
	c1.1,17.8,7.3,34.2,17.3,47.8c8.6-4.3,17.9-7.9,27.8-10.5C338.4,350.9,336.8,338.3,336.5,325.1L336.5,325.1z M423.5,325.1h-76
	c0.3,12.4,1.8,24.2,4,34.7c22.2-4.5,45.6-4.5,67.8,0C421.7,349.1,423.1,337.4,423.5,325.1L423.5,325.1z M475.1,325.1h-40.7
	c-0.3,13.2-1.9,25.8-4.5,37.2c9.8,2.6,19.1,6.2,27.8,10.5C467.7,359.3,474,342.8,475.1,325.1L475.1,325.1z M434.4,314.1h40.7
	c-1.1-17.8-7.3-34.2-17.3-47.8c-8.6,4.3-17.9,7.9-27.8,10.5C432.5,288.2,434.1,300.9,434.4,314.1L434.4,314.1z M347.4,314.1h76
	c-0.3-12.4-1.8-24.2-4-34.7c-22.2,4.5-45.6,4.5-67.8,0C349.2,290,347.8,301.7,347.4,314.1L347.4,314.1z M295.8,314.1h40.7
	c0.3-13.2,1.9-25.8,4.4-37.2c-9.8-2.6-19.1-6.2-27.8-10.5C303.1,279.9,296.9,296.3,295.8,314.1L295.8,314.1z M172,412.1v25.8
	c0,3.6,2.8,6.6,6.6,6.6h413.8c3.6,0,6.6-3,6.6-6.6V170.5c0-3.6-3-6.6-6.6-6.6H178.6c-3.6,0-6.6,3-6.6,6.6v57h-36.5
	c-4.2-12.4-19.9-16.2-29.2-6.9c-11,11-3.2,30.1,12.5,30.1c7.7,0,14.3-4.9,16.7-12H206l14.4,31.2c1,2.1,3,3.3,5,3.3h70.7
	c1.9-3.7,3.9-7.3,6.2-10.7c36-52.2,109.9-58.4,154.2-14.1c39.4,39.4,39.4,103.1,0,142.5c-44.4,44.4-118.9,38.1-154.7-14.8
	c-2.1-3.1-4-6.3-5.7-9.6h-70.7c-2.1,0-4.2,1.2-5,3.3l-14.4,31.2h-70.7c-4.2-12.4-19.9-16.2-29.2-6.9c-11,11-3.2,30.1,12.5,30.1
	c7.7,0,14.3-4.9,16.7-12H172L172,412.1z M206.8,329.2h79c0.4,3.8,1,7.5,1.8,11.3h-79.7l-30.5,13.1c-0.8,0.4-1.8,0.7-2.7,0.7h-39
	c-4.2,12.4-19.9,16.2-29.2,6.9c-11-11-3.2-30.1,12.5-30.1c7.7,0,14.3,4.9,16.7,12h38.2l31-13.3C205.2,329.4,206,329.2,206.8,329.2
	L206.8,329.2z"/>
</svg>
