<?xml version="1.0" encoding="utf-8"?>
<!-- Generator: Adobe Illustrator 27.3.1, SVG Export Plug-In . SVG Version: 6.00 Build 0)  -->
<svg version="1.1" id="Camada_1" xmlns="http://www.w3.org/2000/svg" xmlns:xlink="http://www.w3.org/1999/xlink" x="0px" y="0px"
	 viewBox="0 0 700 700" style="enable-background:new 0 0 700 700;" xml:space="preserve">
<style type="text/css">
	.st0{fill:url(#SVGID_1_);}
	.st1{fill:url(#SVGID_00000144305654901011367520000007694518459115113130_);}
	.st2{fill:url(#SVGID_00000090982895006809676340000001891851151657186211_);}
	.st3{fill:url(#SVGID_00000023263839704059228280000000515734197742943387_);}
</style>
<g>
	<linearGradient id="SVGID_1_" gradientUnits="userSpaceOnUse" x1="713.6263" y1="55.9169" x2="54.6264" y2="708.9169">
		<stop  offset="0" style="stop-color:#FE7D53"/>
		<stop  offset="1" style="stop-color:#9F0066"/>
	</linearGradient>
	<path class="st0" d="M609.2,541.6l-25.5-55.7V246c14.6-22.3,22.8-49,22.8-77v-33.4c0-8-5.7-14.8-13.6-16.1
		c-26.8-4.9-54.2-20.3-64.6-26.7c-5.4-3.3-11.9-3.3-17.2,0c-10.5,6.4-37.9,21.8-64.6,26.7c-8,1.3-13.8,8.2-13.8,16.1V169
		c0,6.6,0.4,13.1,1.4,19.5H172.6c-31,0-56.3,25.2-56.3,56.2V486l-25.4,55.5c-6.8,14.9-5.6,32.2,3.3,46s24,22.1,40.4,22.1h430.8
		c16.5,0,31.5-8.2,40.5-22.1C614.7,573.8,616,556.5,609.2,541.6L609.2,541.6z M133.3,244.8c0-21.7,17.5-39.3,39.3-39.3h264.7
		c10.5,39.4,37.8,72.8,75.2,89.8c0.1,0.1,0.2,0.2,0.2,0.2c2.2,1.1,4.4,1.6,6.8,1.6c2.3,0,4.7-0.5,6.8-1.6h0.1
		c15.2-7,28.8-16.7,40.2-28.3V478H133.3V244.8z M496.4,171.1c0-15,13.6-26,28.5-22.8c8.6,2,15.4,8.7,17.4,17.4
		c2.1,8.9-1.1,17.8-7.8,23.3c-1,0.9-2.2,1.7-3.4,2.4c0.2,0.8,4.1,19.5,4,18.7c1.1,5.3-3,9.9-8,9.9h-15c-5,0-9-5-8-9.9
		c0.2-0.8,4.3-19.5,4.1-18.7c-1.4-0.8-2.6-1.7-3.8-2.8C499.3,184.3,496.4,177.9,496.4,171.1L496.4,171.1z M383.3,567.8h-66.5
		c-6,0-10.1-5.9-8.2-11.5l7.9-22c1.2-3.5,4.5-5.7,8.2-5.7h50.7c3.6,0,6.8,2.2,8.1,5.7l7.9,22C393.4,561.9,389.2,567.8,383.3,567.8
		L383.3,567.8z"/>
	
		<linearGradient id="SVGID_00000178191338538506483320000000246576804215621286_" gradientUnits="userSpaceOnUse" x1="659.7869" y1="1.5828" x2="0.7869" y2="654.5828">
		<stop  offset="0" style="stop-color:#FE7D53"/>
		<stop  offset="1" style="stop-color:#9F0066"/>
	</linearGradient>
	<path style="fill:url(#SVGID_00000178191338538506483320000000246576804215621286_);" d="M350,369.1c30.2,0,73.6-15.1,111.2-48.1
		c3.6-3.1,5.6-7.7,5.6-12.5s-2-9.3-5.6-12.4c-36.8-32.5-81.2-48.3-111.2-48.3c-30.1,0-74.2,15.6-111.2,48.3
		c-3.6,3.1-5.7,7.7-5.7,12.4s2.1,9.4,5.7,12.5C268.1,346.9,311.1,369.1,350,369.1z M297.9,277.7c-5.4,9-8.5,19.5-8.5,30.8
		c0,11.4,3,21.9,8.5,30.9c-21.9-9.9-39.2-23.3-47.8-30.6C258.7,301.1,276,287.5,297.9,277.7z M349.9,273.4h0.2
		c19.4,0,35.1,15.8,35.1,35.2c0,19.4-15.7,35.1-35.1,35.1h-0.2l0,0c-19.3-0.1-34.9-15.8-34.9-35.2
		C315,289.3,330.6,273.5,349.9,273.4L349.9,273.4z"/>
	
		<linearGradient id="SVGID_00000163042177630643440360000011005756722420525722_" gradientUnits="userSpaceOnUse" x1="659.8221" y1="1.6183" x2="0.8221" y2="654.6183">
		<stop  offset="0" style="stop-color:#FE7D53"/>
		<stop  offset="1" style="stop-color:#9F0066"/>
	</linearGradient>
	<path style="fill:url(#SVGID_00000163042177630643440360000011005756722420525722_);" d="M349.9,329h0.2c10.8,0,20.4-8.8,20.4-20.4
		c0-11.4-9.2-20.5-20.4-20.5h-0.2c-11.2,0.2-20.3,9.2-20.3,20.5C329.5,319.8,338.7,328.9,349.9,329L349.9,329z M342.8,296.6
		c3.5,0,6.4,2.8,6.4,6.3s-2.9,6.4-6.4,6.4s-6.3-2.9-6.3-6.4S339.3,296.6,342.8,296.6z"/>
	
		<linearGradient id="SVGID_00000168077586944744428360000005296392857148537504_" gradientUnits="userSpaceOnUse" x1="715.1443" y1="57.4489" x2="56.1444" y2="710.4489">
		<stop  offset="0" style="stop-color:#FE7D53"/>
		<stop  offset="1" style="stop-color:#9F0066"/>
	</linearGradient>
	<path style="fill:url(#SVGID_00000168077586944744428360000005296392857148537504_);" d="M462.8,393.4H237.3c-7,0-13.5,3-18.2,7.6
		c-4.6,4.7-7.6,11.2-7.6,18.2c0,14.2,11.6,25.8,25.8,25.8h225.5c14.2,0,25.7-11.5,25.7-25.8C488.5,405,476.9,393.4,462.8,393.4
		L462.8,393.4z M258.6,430.2c-5.9,0-10.9-4.9-10.9-10.9c0-6.1,4.9-11,10.9-11c6.2,0,11,4.9,11,11
		C269.5,425.3,264.7,430.2,258.6,430.2z M295.1,430.2c-5.9,0-10.9-4.9-10.9-10.9c0-6.1,4.9-11,10.9-11c6.1,0,11,4.9,11,11
		C306.1,425.3,301.2,430.2,295.1,430.2z M331.7,430.2c-5.9,0-10.9-4.9-10.9-10.9c0-6.1,4.9-11,10.9-11c6.1,0,11,4.9,11,11
		C342.6,425.3,337.8,430.2,331.7,430.2z M368.2,430.2c-5.9,0-10.9-4.9-10.9-10.9c0-6.1,4.9-11,10.9-11c6.1,0,11,4.9,11,11
		C379.2,425.3,374.3,430.2,368.2,430.2z M404.9,430.2c-6,0-11-4.9-11-10.9c0-6.1,4.9-11,11-11s11,4.9,11,11
		C415.8,425.3,410.9,430.2,404.9,430.2z M441.5,430.2c-6.1,0-11-4.9-11-10.9c0-6.1,4.9-11,11-11c6,0,11,4.9,11,11
		C452.4,425.3,447.5,430.2,441.5,430.2z"/>
</g>
</svg>
