<?xml version="1.0" encoding="UTF-8"?>
<svg id="Camada_1" data-name="Camada 1" xmlns="http://www.w3.org/2000/svg" xmlns:xlink="http://www.w3.org/1999/xlink" viewBox="0 0 549.95 380.31">
  <defs>
    <style>
      .cls-1 {
        fill: url(#Gradiente_sem_nome_15);
      }
    </style>
    <linearGradient id="Gradiente_sem_nome_15" data-name="Gradiente sem nome 15" x1="593.91" y1="-114.99" x2="-30.09" y2="515.01" gradientUnits="userSpaceOnUse">
      <stop offset="0" stop-color="#fe7d53"/>
      <stop offset="1" stop-color="#9f0066"/>
    </linearGradient>
  </defs>
  <path class="cls-1" d="m548.93,100.15l-28,34.72c-1.12,1.12-1.12,2.8,0,3.92l28,34.16c2.24,2.8.56,7.28-3.36,7.28h-116.48c-.56-2.8-1.12-5.6-2.24-7.84l-.56-.56.56-.56c9.52-8.4,15.68-20.72,15.68-34.16s-5.6-25.2-15.12-34.16l-.56-.56.56-.56c1.12-2.8,2.24-5.6,2.8-8.96h115.92c3.36,0,5.04,4.48,2.8,7.28h0Zm-427.84-7.28H4.61c-3.92,0-6.16,4.48-3.36,7.28l28,34.16c1.12,1.12,1.12,2.8,0,3.92L1.25,172.96c-2.24,2.8,0,7.28,3.36,7.28h115.92c.56-2.8,1.68-6.16,2.8-8.96l.56-.56-.56-.56c-9.52-8.4-15.12-21.28-15.12-34.16s5.6-25.2,15.68-34.16l.56-.56-.56-.56c-1.68-2.25-2.24-5.05-2.8-7.85h0Zm-3.92,239.68l-21.28-1.68-7.84-19.6c-1.68-3.92-6.72-3.92-8.4,0l-7.84,19.6-21.28,1.68c-3.92.56-5.6,5.04-2.8,7.84l16.24,14-5.04,20.16c-1.12,3.92,3.36,6.72,6.72,5.04l17.92-11.2,17.92,11.2c3.36,2.24,7.84-1.12,6.72-5.04l-5.04-20.72,16.24-14c3.36-2.24,1.68-7.28-2.24-7.28h0Zm95.76,0l-21.28-1.68-7.84-19.6c-1.68-3.92-6.72-3.92-8.4,0l-7.84,19.6-21.28,1.68c-3.92.56-5.6,5.04-2.8,7.84l16.24,14-5.04,20.16c-1.12,3.92,3.36,6.72,6.72,5.04l17.92-11.2,17.92,11.2c3.36,2.24,7.84-1.12,6.72-5.04l-5.04-20.72,16.24-14c3.36-2.24,1.68-7.28-2.24-7.28h0Zm95.76,0l-21.28-1.68-7.84-19.6c-1.68-3.92-6.72-3.92-8.4,0l-7.84,19.6-21.84,1.68c-3.92.56-5.6,5.04-2.8,7.84l16.24,14-4.48,20.16c-1.12,3.92,3.36,6.72,6.72,5.04l17.92-11.2,17.92,11.2c3.36,2.24,7.84-1.12,6.72-5.04l-5.04-20.72,16.24-14c3.36-2.24,1.68-7.28-2.24-7.28h0Zm95.76,0l-21.28-1.68-7.84-19.6c-1.68-3.92-6.72-3.92-8.4,0l-7.84,19.6-21.28,1.68c-3.92.56-5.6,5.04-2.8,7.84l16.24,14-5.04,20.16c-1.12,3.92,3.36,6.72,6.72,5.04l17.92-11.2,17.92,11.2c3.36,2.24,7.84-1.12,6.72-5.04l-5.04-20.72,16.24-14c3.36-2.24,1.68-7.28-2.24-7.28h0Zm95.2,0l-21.28-1.68-7.84-19.6c-1.68-3.92-6.72-3.92-8.4,0l-7.84,19.6-21.28,1.68c-3.92.56-5.6,5.04-2.8,7.84l16.24,14-4.48,20.16c-1.12,3.92,3.36,6.72,6.72,5.04l17.92-11.2,17.92,11.2c3.36,2.24,7.84-1.12,6.72-5.04l-5.04-20.72,16.24-14c2.8-2.24,1.68-7.28-2.8-7.28h0ZM140.69,150c-8.4-7.28-8.4-20.16,0-27.44l5.6-4.48c6.16-5.04,7.84-13.44,5.04-20.72l-2.8-6.72c-4.48-10.08,1.12-21.84,11.76-24.64l6.72-1.68c7.28-2.24,12.88-8.96,13.44-16.8l.56-7.28c.56-11.2,10.64-19.04,21.28-16.8l7.28,1.12c7.84,1.12,15.68-2.24,19.04-8.96l3.36-6.16c5.04-9.52,17.92-12.32,26.88-6.16l5.6,4.48c6.16,4.48,15.12,4.48,21.28,0l5.6-3.92c8.96-6.16,21.28-3.36,26.88,6.16l3.36,6.16c3.92,6.72,11.2,10.64,19.04,9.52l7.28-1.12c10.64-1.68,20.72,6.16,21.28,17.36l.56,7.28c.56,7.84,5.6,14.56,13.44,16.8l6.72,2.24c10.64,2.8,16.24,14.56,11.76,24.64l-2.8,6.72c-2.8,7.28-1.12,15.68,4.48,20.72l5.6,5.04c8.4,7.28,8.4,20.16,0,27.44l-5.6,4.48c-6.16,5.04-7.84,13.44-5.04,20.72l2.8,6.72c4.48,10.08-1.12,21.84-11.76,24.64l-6.72,1.68c-7.28,2.24-12.88,8.96-13.44,16.8l-.56,7.28c-.56,11.2-10.64,19.04-21.28,16.8l-7.28-1.12c-7.84-1.12-15.68,2.24-19.04,8.96l-3.36,6.16c-5.04,9.52-17.92,12.32-26.88,6.16l-5.6-4.48c-6.16-4.48-15.12-4.48-21.28,0l-5.6,3.92c-8.96,6.16-21.28,3.36-26.88-6.16l-3.36-6.16c-3.92-6.72-11.2-10.64-19.04-9.52l-7.28,1.12c-10.64,1.68-20.72-6.16-21.28-17.36l-.56-7.28c-.56-7.84-5.6-14.56-13.44-16.8l-6.16-2.79c-10.64-2.8-16.24-14.56-11.76-24.64l2.8-6.72c2.8-7.28,1.12-15.68-4.48-20.72l-6.16-4.48Zm45.36-13.44c0,49.28,40.32,89.04,89.04,89.04s89.04-40.32,89.04-89.04-40.32-89.04-89.04-89.04c-49.28-.56-89.04,39.76-89.04,89.04h0Zm89.04,64.4c35.28,0,64.4-29.12,64.4-64.4s-29.12-64.4-64.4-64.4-64.4,29.12-64.4,64.4,29.12,64.4,64.4,64.4Z"/>
</svg>